# xmcd
#
# Track frame offsets: 
#        150
#        26637
#        49387
#        73805
#        94112
#        112600
#        132752
#        153355
#        179362
#        201822
#        227080
#        248345
#        271522
#        292402
#        318755
#
# Disc length: 4521 seconds
#
# Revision: 87
# Processed by: cddbd v1.5.2PL0 Copyright (c) Steve Scherf et al.
# Submitted via: ExactAudioCopy v1.0b3
#
DISCID=c911a70f
DTITLE=Mr.Children - 2001 Mr.Children 1992-1995
DYEAR=2001
DGENRE=JPop
TTITLE0=君がいた夏
TTITLE1=星になれたら
TTITLE2=抱きしめたい
TTITLE3=Replay
TTITLE4=LOVE
TTITLE5=my life
TTITLE6=CROSS ROAD
TTITLE7=innocent world
TTITLE8=Dance Dance Dance
TTITLE9=雨のち晴れ
TTITLE10=Over
TTITLE11=Tomorrow never knows
TTITLE12=everybody goes -秩序のない現代にドロップキック-
TTITLE13=【es】 〜Theme of es〜
TTITLE14=シーソーゲーム
EXTD=YEAR: 2001
EXTT0=
EXTT1=
EXTT2=
EXTT3=
EXTT4=
EXTT5=
EXTT6=
EXTT7=
EXTT8=
EXTT9=
EXTT10=
EXTT11=
EXTT12=
EXTT13=
EXTT14=
PLAYORDER=
